<svg xmlns="http://www.w3.org/2000/svg" viewBox="0 0 600 600" role="img" aria-label="Family Laundry" xmlns:c2pa="http://c2pa.org/manifest"><metadata><c2pa:manifest>AAAWgmp1bWIAAAAeanVtZGMycGEAEQAQgAAAqgA4m3EDYzJwYQAAABZcanVtYgAAAEdqdW1kYzJtYQARABCAAACqADibcQN1cm46YzJwYTowZmFjNzhmNy1hOGY1LTQ4MjEtOGRmZC0yOWRlYzc1M2NjYzUAAAADl2p1bWIAAAApanVtZGMyYXMAEQAQgAAAqgA4m3EDYzJwYS5hc3NlcnRpb25zAAAAALxqdW1iAAAARGp1bWRjYm9yABEAEIAAAKoAOJtxE2MycGEuaW5ncmVkaWVudC52MwAAAAAYYzJzaP94m6Gk43dfiAOKKZJN56QAAABwY2JvcqNpZGM6Zm9ybWF0bWltYWdlL3N2Zyt4bWxqaW5zdGFuY2VJRHgseG1wOmlpZDpkNDYzNTY1Ny0xZjE2LTQwYWEtYjY1MC00ZGUzZTQxZDhjZTVscmVsYXRpb25zaGlwaHBhcmVudE9mAAAB4mp1bWIAAABBanVtZGNib3IAEQAQgAAAqgA4m3ETYzJwYS5hY3Rpb25zLnYyAAAAABhjMnNoa83qb8Q6P9CKDaQR+wTg2gAAAZljYm9yomdhY3Rpb25zgqJmYWN0aW9ua2MycGEub3BlbmVkanBhcmFtZXRlcnOha2luZ3JlZGllbnRzgaJjdXJseC1zZWxmI2p1bWJmPWMycGEuYXNzZXJ0aW9ucy9jMnBhLmluZ3JlZGllbnQudjNkaGFzaFggwSNqWnGMarrq2qpl4vw5TQpygLLdwCi97hIQKxVtGfykZmFjdGlvbngdY29tLmFudGhyb3BpYy5jbGF1ZGUucHJvdmlkZWRqcGFyYW1ldGVyc6F4H2NvbS5hbnRocm9waWMub3JpZ2luLWNvbmZpZGVuY2VndW5rbm93bmtkZXNjcmlwdGlvbnhmQ2xhdWRlIHByb3ZpZGVkIHRoaXMgZmlsZSBhdCB0aGUgcmVxdWVzdCBvZiBhIHVzZXIgYW5kIG1heSBoYXZlIGNyZWF0ZWQgb3IgbW9kaWZpZWQgdGhlIGZpbGUgY29udGVudHMubXNvZnR3YXJlQWdlbnShZG5hbWVmQ2xhdWRlcmFsbEFjdGlvbnNJbmNsdWRlZPUAAADIanVtYgAAAEBqdW1kY2JvcgARABCAAACqADibcRNjMnBhLmhhc2guZGF0YQAAAAAYYzJzaCl8q/rng5yb9pU3ixrIMLAAAACAY2JvcqVjYWxnZnNoYTI1NmNwYWRNAAAAAAAAAAAAAAAAAGRoYXNoWCDyQWnOyEzzvMYjTINK1giuSLS+Fei0pNfL3c4z1NnA+WRuYW1lbmp1bWJmIG1hbmlmZXN0amV4Y2x1c2lvbnOBomVzdGFydBikZmxlbmd0aBkeBAAAAj5qdW1iAAAAJ2p1bWRjMmNsABEAEIAAAKoAOJtxA2MycGEuY2xhaW0udjIAAAACD2Nib3KlY2FsZ2ZzaGEyNTZpc2lnbmF0dXJleE1zZWxmI2p1bWJmPS9jMnBhL3VybjpjMnBhOjBmYWM3OGY3LWE4ZjUtNDgyMS04ZGZkLTI5ZGVjNzUzY2NjNS9jMnBhLnNpZ25hdHVyZWppbnN0YW5jZUlEeCx4bXA6aWlkOjYxYTg5ZWFmLWY3MjYtNDcyZC1iN2I3LTcxNjE3MDZmMWVlMnJjcmVhdGVkX2Fzc2VydGlvbnODomN1cmx4LXNlbGYjanVtYmY9YzJwYS5hc3NlcnRpb25zL2MycGEuaW5ncmVkaWVudC52M2RoYXNoWCDBI2pacYxquuraqmXi/DlNCnKAst3AKL3uEhArFW0Z/KJjdXJseCpzZWxmI2p1bWJmPWMycGEuYXNzZXJ0aW9ucy9jMnBhLmFjdGlvbnMudjJkaGFzaFggvQHtDZ7jHNPeTQhFEX9vhObHbgnnT3ug/RovgCJ3UW2iY3VybHgpc2VsZiNqdW1iZj1jMnBhLmFzc2VydGlvbnMvYzJwYS5oYXNoLmRhdGFkaGFzaFggEddxuzIGticCaScx/49Wp4p/ehPGdKjE66JzH3aZBZR0Y2xhaW1fZ2VuZXJhdG9yX2luZm+jZG5hbWVvQW50aHJvcGljIEZpbGVzZ3ZlcnNpb25lMS4wLjBrc3BlY1ZlcnNpb25lMi40LjAAABA4anVtYgAAAChqdW1kYzJjcwARABCAAACqADibcQNjMnBhLnNpZ25hdHVyZQAAABAIY2JvctKEWQISogEmGCFZAgowggIGMIIBjaADAgECAhRA5aAK7sI50L64g/oGQgU9Z1UTADAKBggqhkjOPQQDAzBJMRcwFQYDVQQKEw5BbnRocm9waWMsIFBCQzEuMCwGA1UEAxMlQW50aHJvcGljIENvbnRlbnQgQ3JlZGVudGlhbHMgUm9vdCBDQTAeFw0yNjA4MDcxODQzNTZaFw0yODA4MDYxOTQzNTZaMEQxFzAVBgNVBAoTDkFudGhyb3BpYywgUEJDMSkwJwYDVQQDEyBBbnRocm9waWMgQ2xhdWRlIENvbnRlbnQgU2lnbmluZzBZMBMGByqGSM49AgEGCCqGSM49AwEHA0IABJh6CmvLUBgFFNU0vUKlOVtE6djd17L5SuwX0LemFisBM3dkd/3cyjxFA3Qo5S46fX0/ihY0VZ7mfb9KF703t5OjWDBWMA4GA1UdDwEB/wQEAwIHgDAVBgNVHSUEDjAMBgorBgEEAYPoXgIBMAwGA1UdEwEB/wQCMAAwHwYDVR0jBBgwFoAUzlHiBIFOZFsj+OPEz5o+nMHXXMIwCgYIKoZIzj0EAwMDZwAwZAIwMXMdFJ4BetLLVY7ORuE9noqbbAZOZn/aArXyTwFAZfKrPzxF2vPoJNf1+UCdg1XGAjBwX1zd9WGqYkqmL5SFqw1QySjr1zJfpJM9+1rdDwSPLMOPOjKuiXjoU/pUUeG9RwmhY3BhZFkNngAAAAAAAAAAAAAAAAAAAAAAAAAAAAAAAAAAAAAAAAAAAAAAAAAAAAAAAAAAAAAAAAAAAAAAAAAAAAAAAAAAAAAAAAAAAAAAAAAAAAAAAAAAAAAAAAAAAAAAAAAAAAAAAAAAAAAAAAAAAAAAAAAAAAAAAAAAAAAAAAAAAAAAAAAAAAAAAAAAAAAAAAAAAAAAAAAAAAAAAAAAAAAAAAAAAAAAAAAAAAAAAAAAAAAAAAAAAAAAAAAAAAAAAAAAAAAAAAAAAAAAAAAAAAAAAAAAAAAAAAAAAAAAAAAAAAAAAAAAAAAAAAAAAAAAAAAAAAAAAAAAAAAAAAAAAAAAAAAAAAAAAAAAAAAAAAAAAAAAAAAAAAAAAAAAAAAAAAAAAAAAAAAAAAAAAAAAAAAAAAAAAAAAAAAAAAAAAAAAAAAAAAAAAAAAAAAAAAAAAAAAAAAAAAAAAAAAAAAAAAAAAAAAAAAAAAAAAAAAAAAAAAAAAAAAAAAAAAAAAAAAAAAAAAAAAAAAAAAAAAAAAAAAAAAAAAAAAAAAAAAAAAAAAAAAAAAAAAAAAAAAAAAAAAAAAAAAAAAAAAAAAAAAAAAAAAAAAAAAAAAAAAAAAAAAAAAAAAAAAAAAAAAAAAAAAAAAAAAAAAAAAAAAAAAAAAAAAAAAAAAAAAAAAAAAAAAAAAAAAAAAAAAAAAAAAAAAAAAAAAAAAAAAAAAAAAAAAAAAAAAAAAAAAAAAAAAAAAAAAAAAAAAAAAAAAAAAAAAAAAAAAAAAAAAAAAAAAAAAAAAAAAAAAAAAAAAAAAAAAAAAAAAAAAAAAAAAAAAAAAAAAAAAAAAAAAAAAAAAAAAAAAAAAAAAAAAAAAAAAAAAAAAAAAAAAAAAAAAAAAAAAAAAAAAAAAAAAAAAAAAAAAAAAAAAAAAAAAAAAAAAAAAAAAAAAAAAAAAAAAAAAAAAAAAAAAAAAAAAAAAAAAAAAAAAAAAAAAAAAAAAAAAAAAAAAAAAAAAAAAAAAAAAAAAAAAAAAAAAAAAAAAAAAAAAAAAAAAAAAAAAAAAAAAAAAAAAAAAAAAAAAAAAAAAAAAAAAAAAAAAAAAAAAAAAAAAAAAAAAAAAAAAAAAAAAAAAAAAAAAAAAAAAAAAAAAAAAAAAAAAAAAAAAAAAAAAAAAAAAAAAAAAAAAAAAAAAAAAAAAAAAAAAAAAAAAAAAAAAAAAAAAAAAAAAAAAAAAAAAAAAAAAAAAAAAAAAAAAAAAAAAAAAAAAAAAAAAAAAAAAAAAAAAAAAAAAAAAAAAAAAAAAAAAAAAAAAAAAAAAAAAAAAAAAAAAAAAAAAAAAAAAAAAAAAAAAAAAAAAAAAAAAAAAAAAAAAAAAAAAAAAAAAAAAAAAAAAAAAAAAAAAAAAAAAAAAAAAAAAAAAAAAAAAAAAAAAAAAAAAAAAAAAAAAAAAAAAAAAAAAAAAAAAAAAAAAAAAAAAAAAAAAAAAAAAAAAAAAAAAAAAAAAAAAAAAAAAAAAAAAAAAAAAAAAAAAAAAAAAAAAAAAAAAAAAAAAAAAAAAAAAAAAAAAAAAAAAAAAAAAAAAAAAAAAAAAAAAAAAAAAAAAAAAAAAAAAAAAAAAAAAAAAAAAAAAAAAAAAAAAAAAAAAAAAAAAAAAAAAAAAAAAAAAAAAAAAAAAAAAAAAAAAAAAAAAAAAAAAAAAAAAAAAAAAAAAAAAAAAAAAAAAAAAAAAAAAAAAAAAAAAAAAAAAAAAAAAAAAAAAAAAAAAAAAAAAAAAAAAAAAAAAAAAAAAAAAAAAAAAAAAAAAAAAAAAAAAAAAAAAAAAAAAAAAAAAAAAAAAAAAAAAAAAAAAAAAAAAAAAAAAAAAAAAAAAAAAAAAAAAAAAAAAAAAAAAAAAAAAAAAAAAAAAAAAAAAAAAAAAAAAAAAAAAAAAAAAAAAAAAAAAAAAAAAAAAAAAAAAAAAAAAAAAAAAAAAAAAAAAAAAAAAAAAAAAAAAAAAAAAAAAAAAAAAAAAAAAAAAAAAAAAAAAAAAAAAAAAAAAAAAAAAAAAAAAAAAAAAAAAAAAAAAAAAAAAAAAAAAAAAAAAAAAAAAAAAAAAAAAAAAAAAAAAAAAAAAAAAAAAAAAAAAAAAAAAAAAAAAAAAAAAAAAAAAAAAAAAAAAAAAAAAAAAAAAAAAAAAAAAAAAAAAAAAAAAAAAAAAAAAAAAAAAAAAAAAAAAAAAAAAAAAAAAAAAAAAAAAAAAAAAAAAAAAAAAAAAAAAAAAAAAAAAAAAAAAAAAAAAAAAAAAAAAAAAAAAAAAAAAAAAAAAAAAAAAAAAAAAAAAAAAAAAAAAAAAAAAAAAAAAAAAAAAAAAAAAAAAAAAAAAAAAAAAAAAAAAAAAAAAAAAAAAAAAAAAAAAAAAAAAAAAAAAAAAAAAAAAAAAAAAAAAAAAAAAAAAAAAAAAAAAAAAAAAAAAAAAAAAAAAAAAAAAAAAAAAAAAAAAAAAAAAAAAAAAAAAAAAAAAAAAAAAAAAAAAAAAAAAAAAAAAAAAAAAAAAAAAAAAAAAAAAAAAAAAAAAAAAAAAAAAAAAAAAAAAAAAAAAAAAAAAAAAAAAAAAAAAAAAAAAAAAAAAAAAAAAAAAAAAAAAAAAAAAAAAAAAAAAAAAAAAAAAAAAAAAAAAAAAAAAAAAAAAAAAAAAAAAAAAAAAAAAAAAAAAAAAAAAAAAAAAAAAAAAAAAAAAAAAAAAAAAAAAAAAAAAAAAAAAAAAAAAAAAAAAAAAAAAAAAAAAAAAAAAAAAAAAAAAAAAAAAAAAAAAAAAAAAAAAAAAAAAAAAAAAAAAAAAAAAAAAAAAAAAAAAAAAAAAAAAAAAAAAAAAAAAAAAAAAAAAAAAAAAAAAAAAAAAAAAAAAAAAAAAAAAAAAAAAAAAAAAAAAAAAAAAAAAAAAAAAAAAAAAAAAAAAAAAAAAAAAAAAAAAAAAAAAAAAAAAAAAAAAAAAAAAAAAAAAAAAAAAAAAAAAAAAAAAAAAAAAAAAAAAAAAAAAAAAAAAAAAAAAAAAAAAAAAAAAAAAAAAAAAAAAAAAAAAAAAAAAAAAAAAAAAAAAAAAAAAAAAAAAAAAAAAAAAAAAAAAAAAAAAAAAAAAAAAAAAAAAAAAAAAAAAAAAAAAAAAAAAAAAAAAAAAAAAAAAAAAAAAAAAAAAAAAAAAAAAAAAAAAAAAAAAAAAAAAAAAAAAAAAAAAAAAAAAAAAAAAAAAAAAAAAAAAAAAAAAAAAAAAAAAAAAAAAAAAAAAAAAAAAAAAAAAAAAAAAAAAAAAAAAAAAAAAAAAAAAAAAAAAAAAAAAAAAAAAAAAAAAAAAAAAAAAAAAAAAAAAAAAAAAAAAAAAAAAAAAAAAAAAAAAAAAAAAAAAAAAAAAAAAAAAAAAAAAAAAAAAAAAAAAAAAAAAAAAAAAAAAAAAAAAAAAAAAAAAAAAAAAAAAAAAAAAAAAAAAAAAAAAAAAAAAAAAAAAAAAAAAAAAAAAAAAAAAAAAAAAAAAAAAAAAAAAAAAAAAAAAAAAAAAAAAAAAAAAAAAAAAAAAAAAAAAAAAAAAAAAAAAAAAAAAAAAAAAAAAAAAAAAAAAAAAAAAAAAAAAAAAAAAAAAAAAAAAAAAAAAAAAAAAAAAAAAAAAAAAAAAAAAAAAAAAAAAAAAAAAAAAAAAAAAAAAAAAAAAAAAAAAAAAAAAAAAAAAAAAAAAAAAAAAAAAAAAAAAAAAAAAAAAAAAAAAAAAAAAAAAAAAAAAAAAAAAAAAAAAAAAAAAAAAAAAAAAAAAAAAAAAAAAAAAAAAAAAAAAAAAAAAAAAAAAAAAAAAAAAAAAAAAAAAAAAAAAAAAAAAAAAAAAAAAAAAAAAAAAAAAAAAAAAAAAAAAAAAAAAAAAAAAAAAAAAAAAAAAAAAAAAAAAAAAAAAAAAAAAAAAAAAAAAAAAAAAAAAAAAAAAAAAAAAAAAAAAAAAAAAAAAAAAAAAAAAAAAAAAAAAAAAAAAAAAAAAAAAAAAAAAAAAAAAAAAAAAAAAAAAAAAAAAAAAAAAAAAAAAAAAAAAAAAAAAAAAAAAAAAAAAAAAAAAAAAAAAAAAAAAAAAAAAAAAAAAAAAAAAAAAAAAAAAAAAAAAAAAAAAAAAAAAAAAAAAAAAAAAAAAAAAAAAAAAAAAAAAAAAAAAAAAAAAAAAAAAAAAAAAAAAAAAAAAAAAAAAAAAAAAAAAAAAAAAAAAAAAAAAAAAAAAAAAAAAAAAAAAAAAAAAAAAAAAAAAAAAAAAAAAAAAAAAAAAAAAAAAAAAAAAAAAAAAAAAAAAAAAAAAAAAAAAAAAAAAAAAAAAAAAAAAAAAAAAAAAAAAAAAAAAAAAAAAAAAAAAAAAAAAAAAAAAAAAAAAAAAAAAAAAAAAAAAAAAAAAAAAAAAAAAAAAAAAAAAAAAAAAAAAAAAAAAAAAAAAAAAAAAAAAAAAAAAAAAAAAAAAAAAAAAAAAAAAAAAAAAAAAAAAAAAAAAAAAAAAAAAAAAAAAAAAAAAAAAAAAAAAAAAAAAAAAAAAAAAAAAAAAAAAAAAAAAAAAAAAAAAAAAAAAAAAAAAAAAAAAAAAAAAAAAAAAAAAAAAAAAAAAAAAAAAAAAAAAAAAAAAAAAAAAAAAAAAAAAAAAAAAAAAAAAAAAAAAAAAAAAAAAAAAAAAAAPZYQL2Q0NE5CLW0rrdaJ2LbQGWD3WG9jNfkAK8mtz0yo+DoUpYmUgC5gbVQbgfEol8VtRygKPR6NkMna2OYNSPeuEw=</c2pa:manifest></metadata><circle cx="300" cy="300" r="297.0" fill="#fff" stroke="#223562" stroke-width="6"/><g transform="translate(24.46 165.28) scale(0.9162)">
<path fill="#fccb1d" d="M 300.84 58.45 L 1.68 175.82 L 300.84 293.19 L 600 175.82 L 300.84 58.45 "/>
<path fill="#223562" d="M 443.85 122.07 C 443.38 125.98 442.96 129.54 442.49 133.41 C 451.73 132.95 461.12 130.75 467.32 139.67 C 471.63 145.86 472.57 154.58 469.99 162 C 466.55 163.54 462.91 162.54 459.36 162.18 C 453.08 161.47 456.4 147.87 453 143.24 C 452.31 143.59 451.79 143.68 451.62 143.97 C 446.21 153.06 440.86 162.09 441.08 173.29 C 441.31 184.72 441.11 196.16 441 207.6 C 440.93 215.77 434.2 221.93 426.1 220.76 C 422.46 220.23 420.39 218.3 420.1 214.03 C 418.23 190.71 418.46 167.32 418.97 143.96 C 419.08 138.48 419.78 133.03 420.12 127.55 C 420.28 124.98 421.64 123.28 423.92 122.56 C 429.61 120.77 435.37 119.3 441.77 119.62 C 443.04 119.69 444 120.81 443.85 122.07 Z M 253.36 213.91 C 246.28 219.62 238.48 219.46 230.76 218.75 C 215.93 217.86 215.98 200.35 215.09 189.1 C 214.68 170.81 214.72 152.5 214.68 134.2 C 214.67 129.45 215.32 128.28 220 127.56 C 224.77 126.83 229.7 126.99 234.56 127.02 C 239.76 127.09 237.93 133.64 238.14 137.11 C 237.75 154.16 237.3 171.23 236.98 188.29 C 237.35 192.05 236.43 200.25 241.08 201.36 C 247.64 201.94 250.76 192.96 250.86 187.5 C 250.67 169.81 250.63 152.13 250.55 134.44 C 250.86 129.18 251.09 124.93 257.5 125.64 C 262.15 125.69 266.87 125.72 271.44 126.47 C 275.82 127.19 276.45 128.39 276.34 132.73 C 275.85 153.25 275.34 173.76 274.77 194.27 C 274.57 201.16 274.26 208.06 273.87 214.95 C 273.59 219.87 271.54 221.8 266.95 220.89 C 262.01 219.92 256.83 219.08 253.36 213.91 Z M 308.54 129.07 C 351.31 130.05 354.31 186.87 347.1 218.88 C 345.84 223.72 340.86 224.37 336.59 223.54 C 327.31 221.33 324.34 220.12 325.36 208.73 C 325.77 202.23 329.64 138.82 316.92 147.86 C 310.91 153.62 304.98 159.27 305.65 168.98 C 306.29 184.58 305.41 200.28 306.66 215.89 C 308.04 226.23 292.84 222.78 286.67 222.07 C 282.95 221.44 281.7 216.64 281.43 210.64 C 281.02 201.56 283.01 156.85 282.91 138.79 C 282.9 135.7 282.84 132.61 282.73 129.52 C 281.78 118.05 304.99 120.55 308.54 129.07 Z M 179.37 171.23 C 144.72 170.9 146.91 198.79 180.78 196.98 C 180.3 188.17 179.84 179.95 179.37 171.23 Z M 180.08 154.6 C 181 147.6 180.52 140.93 179.2 134.38 C 177.31 124.04 165.63 129.41 159.39 132.35 C 155.09 134.41 151.07 137.07 146.83 139.27 C 144.47 140.49 141.55 139.71 140.16 137.44 C 136.33 131.18 136.53 129.38 142.65 125.69 C 153.44 119.18 164.95 115.02 177.88 115.91 C 192.49 116.76 206.2 128.6 205.14 143.8 C 205.42 167.76 205.77 191.73 206.53 215.68 C 206.64 226.15 205.55 227.28 195.13 229.12 C 185.11 231.36 181.81 226.43 181.56 216.8 C 164.13 215.07 145.64 213.88 132.86 200.27 C 123.61 191 123.49 178.96 132.59 169.43 C 145.08 156.02 162.79 155.7 180.08 154.6 Z M 377.36 199.72 C 378.28 201.1 380.29 201.25 381.4 200.02 C 385.58 195.36 388.1 190.48 388.27 184.37 C 388.34 167.8 389.98 151.18 389.02 134.64 C 375.44 133.37 371.27 165.82 370.76 175.69 C 370.54 184.16 372.55 192.54 377.36 199.72 Z M 389.7 121.68 C 390.17 110.95 390.61 100.83 391.06 90.71 C 390.82 87.33 391.34 82.86 394.77 81.52 C 400.62 80.56 413.79 75.64 412.78 85.89 C 412.02 121.01 411.18 156.14 410.32 191.26 C 410.05 201.41 409.64 211.56 409.22 221.71 C 409.07 225.48 408.52 229.2 403.99 230.3 C 399.11 231.48 394.18 231.81 390.18 228.15 C 387.31 224.31 388.61 219.24 388.38 214.36 C 379.32 219.19 373.27 221.55 365 214.08 C 350.11 199.98 348.77 176.55 353.28 157.63 C 358.39 138.11 363.68 114.99 389.7 121.68 Z M 494.64 203.23 C 503.54 193.27 508.78 180.46 509.31 166.93 C 509.53 154.56 510.2 142.2 510.71 129.83 C 510.86 126.29 511.89 124.99 515.33 124.68 C 520.1 124.97 530 121.84 529.94 129.24 C 529.75 164.32 530.61 199.58 523.9 234.22 C 516.96 272.99 493.84 284.95 461.3 260.15 C 454.45 253.6 440.2 244.48 447 234.16 C 447.62 233.21 448.93 233 449.87 233.63 C 450.9 234.32 451.85 234.97 452.48 235.86 C 459.29 245.39 468.53 251.83 478.84 256.96 C 501.59 269.46 506.89 225.73 507.48 210.98 C 499.86 218.42 493.17 224.36 484.05 218.75 C 475.46 214.43 472.7 207.56 472.86 198.86 C 473.36 177.15 474.39 155.45 474.05 133.72 C 474.04 130.87 475.09 128.66 477.85 128.33 C 482.84 127.73 487.91 127.3 492.91 127.57 C 496.11 127.75 496.95 130.16 496.75 134.01 C 495.65 156.91 494.14 179.81 493.38 202.72 C 494 202.97 494.02 202.98 494.64 203.23 Z M 107.99 207.61 C 136.71 198.9 139.63 203.29 143.91 231.65 C 128.07 232.88 113.53 237.23 99.03 241.59 C 88.59 245.31 80.86 233.17 79.82 224.2 C 77.56 205.48 75.09 186.79 73.18 168.04 C 69.99 132.84 70.4 97.1 66.04 62.06 C 73.5 55.43 88.71 54.41 98.25 57.26 C 103.34 58.75 103.46 59.28 103.55 64.37 C 104.75 112.34 105.31 159.58 107.99 207.61 Z M 228.32 111.64 C 228.32 111.64 229.59 119.03 223.85 119.03 C 218.11 119.03 217.98 112.91 217.98 112.91 L 215.22 70.22 C 212.14 70.86 209.38 71.46 207.24 71.96 C 204.86 72.52 202.5 70.95 202.09 68.54 L 202.01 68.08 C 201.61 65.77 203.02 63.53 205.27 62.88 C 207.59 62.21 210.82 61.32 214.58 60.36 L 212.33 25.66 C 211.07 25.95 209.96 26.21 209.05 26.43 C 196.8 29.26 201.9 32.45 196.04 32.45 C 192.57 32.45 190.3 28.25 189.03 24.81 C 188.13 22.38 189.23 19.68 191.61 18.63 C 196 16.7 203.59 13.59 211.46 11.39 C 211.54 8.8 212.82 6.67 217.6 4.96 C 221.78 3.47 222.93 7.16 223.23 8.87 C 240.37 5.98 274.15 1.81 287.72 0.84 C 292.59 0.48 297.09 3.74 298.04 8.52 C 298.45 10.54 298.47 12.44 298.43 13.57 C 298.41 14.18 297.91 14.63 297.3 14.59 C 274.12 13.23 244.16 18.69 224.98 22.81 C 225.34 29.06 225.89 42.79 226.44 57.63 C 231.6 56.57 237 55.66 242.04 55.17 C 244.55 54.92 246.81 56.77 247.04 59.28 C 247.2 60.92 247.16 62.14 247.09 62.94 C 247.04 63.59 246.56 64.11 245.92 64.23 C 243.16 64.75 235.18 66.25 226.81 67.89 C 227.61 90.14 228.32 111.64 228.32 111.64 Z M 309.29 45.95 C 309.29 45.95 308.05 32.45 314.63 32.45 C 321.2 32.45 320.56 45.48 320.56 45.48 C 320.56 45.48 321.68 58.45 314.1 58.45 C 309.64 58.45 309.29 45.95 309.29 45.95 Z M 349.49 129.09 C 342.05 129.09 351.3 112.8 357.32 108.58 C 357.32 108.58 356.93 129.09 349.49 129.09 Z M 252.16 84.23 C 252.16 84.23 249.79 103.38 245.56 103.38 C 241.34 103.38 244.2 85.46 244.2 85.46 C 244.2 85.46 247.64 70.22 251.3 70.22 C 254.95 70.22 252.16 84.23 252.16 84.23 Z M 332.54 51.63 C 337.27 26.47 340.36 29.1 337.85 55.68 C 335.36 81.97 330.42 76.86 330.42 76.86 C 330.42 68.12 331.23 58.66 332.54 51.63 Z M 363.43 100.4 C 363.48 99.89 366.27 76.13 367.24 68.24 C 367.36 67.27 366.6 66.41 365.62 66.41 L 361.99 66.41 C 361.19 66.41 360.51 67 360.38 67.79 C 359.39 74.05 355.13 99.58 351.54 99.58 C 348.05 99.58 352.32 75.43 353.65 68.34 C 353.84 67.34 353.07 66.41 352.05 66.41 L 348.27 66.41 C 347.66 66.41 347.1 66.76 346.82 67.3 C 345.8 69.26 343.01 75.06 336.78 90.28 C 328.45 110.64 330.33 81.63 330.33 81.63 C 338.76 83.9 342.51 66.63 343.58 50.79 C 346.29 10.86 329.61 29.26 325.88 54.31 C 324.83 61.39 324.27 68.15 323.99 72.13 C 323.22 71.7 322.2 71.33 321.71 72.11 C 321.29 72.8 322.24 74.08 323.26 75.16 C 321.27 83.21 317.21 98.54 315.23 98.54 C 312.93 98.54 315.04 74.3 315.69 67.46 C 315.78 66.5 315.02 65.68 314.06 65.68 L 311.55 65.68 C 310.8 65.68 310.14 66.2 309.97 66.93 C 308.59 72.73 302.7 96.8 300.25 96.8 C 297.88 96.8 299.95 73.63 300.59 66.95 C 300.68 66 299.93 65.17 298.96 65.17 L 296.41 65.17 C 295.66 65.17 295.02 65.67 294.83 66.39 C 293.64 71.04 289.36 87.34 287.98 87.34 C 286.66 87.34 287.41 73.08 287.72 68.06 C 287.78 67.12 287.04 66.34 286.09 66.34 L 282.23 66.34 C 281.45 66.34 280.79 66.88 280.63 67.64 C 279.53 73 275.3 93.15 274.1 93.15 C 272.94 93.15 273.77 74.86 274.07 68.91 C 274.12 67.93 273.3 67.14 272.33 67.21 L 269.25 67.44 C 267.99 67.54 267.33 68.27 267.36 69.14 C 267.36 69.14 261.17 99.29 258.61 99.29 C 256.62 99.29 256.89 81.42 257.11 73.52 C 257.18 70.83 255.43 68.43 252.85 67.67 C 247.61 66.14 239.24 67.47 236.91 89.79 C 235.6 102.43 238.52 111.64 243.64 111.64 C 248.75 111.64 251.53 100.82 251.53 100.82 C 252.4 110.1 256.27 111.05 256.27 111.05 C 262.06 111.05 265.57 98.26 267.42 88.5 C 267.8 98.86 268.93 109.52 271.95 109.52 C 277.11 109.52 280.09 87.82 280.09 87.82 C 280.09 87.82 279.16 107.52 284.05 107.52 C 289.82 107.52 293.02 82.78 293.02 82.78 C 293.02 82.78 290.77 107.89 297.49 107.89 C 301.68 107.89 305.5 97.91 307.91 90.85 C 307.79 97.11 308.27 108.7 313.69 108.7 C 318.39 108.7 321.87 96.95 323.79 88.32 C 323.92 90.79 325.06 108.79 330.64 108.79 C 336.63 108.79 342.33 91.11 344.67 84.17 C 343.06 91.85 343.65 106.89 349.49 106.89 C 355.34 106.89 358.41 94.76 358.41 94.76 L 357.62 103.84 C 340.43 116.27 334.88 135.38 348.52 135.38 C 360.5 135.38 362.32 117.03 363.47 103.87 C 370.93 99.11 382.85 98.68 382.85 97.34 C 382.85 96.01 369.27 98.02 363.43 100.4 "/>
<path fill="#223562" d="M 263.13 232.64 L 262.3 232.71 C 259.95 232.91 257.66 233.45 255.52 234.3 C 253.41 235.02 252.87 236.15 252.79 236.93 C 252.71 237.43 252.71 238.48 252.72 239.72 C 252.73 240.39 252.73 241 252.71 241.37 C 252.71 241.65 252.69 244.88 252.67 248.3 L 252.66 249.62 C 252.64 252.14 252.62 254.62 252.62 255.62 C 252.62 255.79 252.69 255.96 252.82 256.08 C 252.94 256.18 253.08 256.23 253.23 256.23 L 253.31 256.23 L 257.29 255.71 C 259.5 255.42 261.8 255.12 262.34 255.05 L 262.78 254.99 C 263.1 254.95 263.33 254.67 263.31 254.35 L 263.27 253.6 C 263.25 253.28 262.99 253.03 262.67 253.02 L 255.82 252.92 L 255.78 246.16 L 262.56 245.48 C 262.88 245.45 263.12 245.18 263.11 244.86 L 263.09 244.1 C 263.08 243.78 262.82 243.52 262.5 243.51 L 255.77 243.25 L 255.73 237.95 C 255.72 237.73 255.73 237.56 255.74 237.47 C 257.64 236.47 260.48 235.74 263.38 235.5 C 263.54 235.49 263.69 235.41 263.8 235.29 C 263.9 235.16 263.95 235 263.94 234.84 L 263.79 233.2 C 263.76 232.87 263.46 232.61 263.13 232.64 "/>
<path fill="#223562" d="M 315.3 252.25 C 312.36 251.88 309.25 251.77 305.24 251.89 C 306.53 249.78 308.31 247.9 310.19 245.91 C 313.19 242.75 316.3 239.47 317.42 235 C 317.88 232.93 317.38 229.95 315.16 228.27 C 313.38 227.13 311.16 226.9 308.74 227.59 C 305.15 228.61 301.27 231.75 299.49 235.04 C 299.4 235.2 299.39 235.38 299.45 235.55 C 299.52 235.71 299.65 235.84 299.82 235.91 L 301.63 236.55 C 301.9 236.65 302.2 236.55 302.35 236.31 C 304 233.75 306.58 231.89 309.45 231.19 C 311 230.73 312.31 230.82 313 231.44 C 313.61 231.98 313.8 232.92 313.59 234.14 C 312.39 237.75 309.89 240.4 307.23 243.21 C 305.12 245.45 302.95 247.77 301.41 250.59 C 300.7 251.62 300.51 252.97 300.92 254.03 C 301.25 254.9 301.96 255.49 302.89 255.71 L 303.01 255.73 C 303.99 255.77 304.94 255.79 305.87 255.79 C 309.38 255.79 312.52 255.49 315.41 254.87 C 315.7 254.81 315.9 254.54 315.89 254.25 L 315.84 252.83 C 315.82 252.53 315.6 252.29 315.3 252.25 "/>
<path fill="#223562" d="M 342.53 236.42 L 341.77 235.84 C 341.58 235.7 341.33 235.68 341.12 235.79 L 337.7 237.54 C 337.43 237.68 337.3 238 337.4 238.29 L 337.68 239.05 C 337.73 239.21 337.86 239.35 338.02 239.41 C 338.19 239.48 338.38 239.47 338.53 239.39 L 340.34 238.46 C 339.97 240.67 339.71 242.93 339.45 245.15 C 339.13 247.88 338.81 250.7 338.25 253.46 L 338.11 254.35 C 338.05 254.68 338.28 255 338.61 255.05 L 340.39 255.36 L 340.5 255.36 C 340.79 255.36 341.05 255.16 341.1 254.86 C 341.85 250.74 342.41 246.22 342.8 241.02 L 342.84 240.25 L 342.84 240.24 C 342.91 239.12 342.99 237.96 342.76 236.79 C 342.73 236.64 342.65 236.51 342.53 236.42 "/>
<path fill="#223562" d="M 348.34 246.65 C 348.77 246.46 349.32 246.36 349.95 246.32 C 350.82 246.51 351.77 246.55 352.72 246.45 C 354.05 246.62 355.14 247.16 355.78 247.99 C 356.31 248.67 356.52 249.54 356.39 250.52 C 356.14 252.88 352.14 253.47 350.65 253.5 C 349.41 253.46 347.64 252.98 346.76 251.75 C 346.27 251.07 346.16 250.23 346.43 249.34 L 346.45 249.29 C 346.75 247.89 347.37 247.03 348.34 246.65 Z M 352.61 237.11 C 353.79 237.11 354.95 237.38 355.78 238.02 C 357.71 239.74 357.18 241.07 356.7 241.71 C 355.78 242.91 353.67 243.75 351.56 243.75 C 350.49 243.75 349.55 243.52 348.88 243.09 C 348.18 242.68 347.79 242.05 347.71 241.23 C 347.61 240.09 348.21 238.67 349.04 237.94 C 350.02 237.42 351.33 237.11 352.61 237.11 Z M 356.63 245.38 C 356.77 245.31 356.92 245.25 357.07 245.18 C 358.81 244.29 359.9 242.59 359.99 240.62 C 360.08 238.63 359.12 236.8 357.43 235.73 C 354.75 234.04 351.03 234.03 347.76 235.87 C 346.18 237.06 345.18 239.14 345.21 241.17 C 345.24 242.73 345.87 244.06 347 244.97 C 346.28 245.37 345.74 245.87 345.34 246.51 C 344.08 248.65 343.89 250.79 344.81 252.55 C 345.79 254.41 347.87 255.58 350.53 255.76 C 350.63 255.77 350.74 255.77 350.85 255.77 C 353.56 255.77 355.71 255.05 357.64 253.46 C 358.52 252.55 358.99 251.24 358.95 249.87 C 358.91 248.34 358.23 246.81 357.13 245.79 C 356.98 245.63 356.81 245.5 356.63 245.38 "/>
<path fill="#223562" d="M 330.91 238.41 C 333.25 240.84 332.97 246.1 331.11 248.71 C 329.95 250.33 327.89 251.5 325.86 251.71 C 324.32 251.86 323 251.46 322.02 250.54 C 319.72 248.3 318.86 243.64 321.16 240.75 C 322.54 239.04 325.37 237.47 327.94 237.47 C 329.02 237.47 330.05 237.75 330.91 238.41 Z M 327.46 235.25 C 324.55 235.25 321.37 236.72 319.14 239.12 C 315.97 242.95 316.36 249.03 320.04 252.71 C 321.72 254.21 323.6 254.61 325.12 254.61 C 325.48 254.61 325.82 254.58 326.14 254.55 C 328.92 254.23 331.66 252.6 333.29 250.29 C 335.75 246.8 335.84 240.03 332.23 236.84 C 330.89 235.8 329.24 235.25 327.46 235.25 "/>
<path fill="#223562" d="M 287.48 252.2 C 286.57 252.2 286.09 252.92 286.09 253.63 C 286.09 254.34 286.57 255.06 287.48 255.06 C 288.39 255.06 288.87 254.34 288.87 253.63 C 288.87 252.92 288.39 252.2 287.48 252.2 "/>
<path fill="#223562" d="M 270.1 249.04 C 269.29 248.93 268.53 248.84 267.89 248.52 C 267.18 248.26 267.05 247.59 267.05 247.07 C 267.07 246.21 267.57 245.12 268.29 244.91 C 268.85 244.71 270.23 244.43 270.91 244.84 C 271.37 245.06 271.73 245.81 272.09 246.55 C 272.25 246.9 272.41 247.23 272.58 247.51 C 272.67 247.65 272.96 247.79 273.13 247.82 C 273.37 247.86 273.61 247.77 273.75 247.57 L 274.13 247.02 C 274.76 246 274.69 244.8 273.95 243.72 C 272.96 242.29 271.07 241.43 269.61 241.7 C 268.81 241.75 266.11 242.04 265.05 244.05 C 264.04 245.98 263.91 247.56 264.66 249.21 C 265.19 250.21 266.09 250.77 266.75 251.06 C 267.79 251.55 268.8 251.63 269.7 251.7 C 270.54 251.76 271.27 251.82 272 252.21 C 272.13 252.54 272.05 252.7 271.97 252.8 C 271.36 253.53 268.23 253.29 266.2 252.83 L 265.79 252.74 C 265.46 252.67 265.14 252.86 265.06 253.18 L 264.86 253.95 C 264.78 254.27 264.97 254.6 265.29 254.69 C 266.88 255.14 268.55 255.55 270.37 255.55 C 270.91 255.55 271.46 255.52 272.02 255.43 C 273.12 255.28 274.12 254.39 274.5 253.24 C 274.84 252.19 274.6 251.12 273.84 250.38 C 272.8 249.37 271.36 249.19 270.1 249.04 "/>
<path fill="#223562" d="M 284.19 242.21 C 283.82 241.7 283.26 241.71 282.81 241.73 C 282.64 241.73 282.48 241.73 282.27 241.71 L 281.99 241.71 L 282.02 241.07 C 282.02 240.7 282.04 240.27 282.06 239.81 C 282.12 238.7 282.19 237.44 281.91 236.48 L 281.76 235.94 C 281.69 235.68 281.46 235.5 281.2 235.49 L 280.68 235.47 C 280.41 235.44 280.17 235.63 280.08 235.88 L 279.89 236.4 C 279.56 237.35 279.55 238.61 279.54 239.72 C 279.54 240.17 279.54 240.6 279.51 241.01 L 279.5 241.68 C 278.54 241.69 277.71 241.72 276.96 241.79 L 276.51 241.83 C 276.2 241.86 275.95 242.11 275.95 242.43 L 275.94 243.12 C 275.93 243.42 276.14 243.68 276.43 243.74 C 277.3 243.9 278.26 244.04 279.43 244.17 C 279.35 247.43 279.27 251.2 279.26 254.62 L 279.26 255.05 C 279.26 255.38 279.52 255.65 279.85 255.66 L 280.64 255.69 L 280.66 255.69 C 280.98 255.69 281.25 255.45 281.27 255.12 C 281.53 251.63 281.74 247.92 281.89 244.38 L 282.2 244.41 C 282.31 244.4 282.45 244.42 282.63 244.44 C 283.09 244.5 283.61 244.57 284.05 244.1 L 284.56 243.56 C 284.76 243.34 284.78 243.02 284.61 242.78 L 284.19 242.21 "/>
</g></svg>